<?xml version="1.0" encoding="utf-8"?>
<!-- Generator: Adobe Illustrator 22.0.1, SVG Export Plug-In . SVG Version: 6.00 Build 0)  -->
<svg version="1.2" baseProfile="tiny" id="Layer_1" xmlns="http://www.w3.org/2000/svg" xmlns:xlink="http://www.w3.org/1999/xlink"
	 x="0px" y="0px" viewBox="0 0 2922.9 756" xml:space="preserve">
<g>
	<g>
		<g>
			<path fill="#001847" d="M378,736C180.6,736,20,575.4,20,378C20,180.6,180.6,20,378,20c197.4,0,358,160.6,358,358
				C736,575.4,575.4,736,378,736 M378,23.4C182.5,23.4,23.4,182.5,23.4,378c0,195.5,159.1,354.6,354.6,354.6
				c195.5,0,354.6-159.1,354.6-354.6C732.6,182.5,573.5,23.4,378,23.4z"/>
			<path fill="#001847" d="M378,727.1C185.5,727.1,28.9,570.5,28.9,378C28.9,185.5,185.5,28.9,378,28.9
				c192.5,0,349.1,156.6,349.1,349.1C727.1,570.5,570.5,727.1,378,727.1 M378,39C191.1,39,39,191.1,39,378
				c0,186.9,152.1,339,339,339c186.9,0,339-152.1,339-339C717,191.1,564.9,39,378,39z"/>
			<path fill="#001847" d="M378,606.2c-125.8,0-228.2-102.4-228.2-228.2c0-125.8,102.4-228.2,228.2-228.2
				c125.8,0,228.2,102.4,228.2,228.2C606.2,503.8,503.8,606.2,378,606.2 M378,159.9C257.8,159.9,160,257.8,160,378
				c0,120.2,97.8,218.1,218.1,218.1c120.2,0,218.1-97.8,218.1-218.1C596.1,257.8,498.2,159.9,378,159.9z"/>
			<path fill="#001847" d="M378,619.5c-133.1,0-241.5-108.3-241.5-241.5c0-133.1,108.3-241.5,241.5-241.5
				c133.1,0,241.5,108.3,241.5,241.5C619.5,511.1,511.1,619.5,378,619.5 M378,139.9c-131.3,0-238.1,106.8-238.1,238.1
				c0,131.3,106.8,238.1,238.1,238.1c131.3,0,238.1-106.8,238.1-238.1C616.1,246.7,509.3,139.9,378,139.9z"/>
			<path fill="#ED1C24" d="M96.9,314c1.8-4,3.6-6.7,5.3-8.1c2.4-2,5.2-2.7,8.4-2.1c3.3,0.7,5.8,2.5,7.4,5.6c2,3.8,2.3,8.8,1.1,15
				l-4.5,22.3l-1.2-0.2c0.4-2,0.5-3.4,0.3-4.2c-0.2-0.8-0.6-1.4-1.2-1.8c-0.6-0.4-2-0.9-4.4-1.3l-28.5-5.7c-2.4-0.5-3.9-0.6-4.6-0.5
				c-0.7,0.2-1.3,0.6-1.8,1.2c-0.5,0.7-1,2-1.4,4l-1.2-0.2l4.2-21.1c1-5,2.2-8.5,3.5-10.4c1.3-1.9,3-3.3,5-4.2c2-0.9,4-1.1,6.1-0.7
				c2.1,0.4,3.9,1.6,5.2,3.4C96,307,96.7,310,96.9,314 M93.7,325.6c0.6-3.1,0.7-5.4,0.3-7c-0.4-1.6-1.2-2.9-2.2-3.9
				c-1.1-1-2.6-1.7-4.6-2.1c-1.9-0.4-3.6-0.3-5,0.2c-1.4,0.5-2.6,1.4-3.5,2.7c-0.9,1.3-1.7,3.5-2.3,6.7L93.7,325.6z M89.6,264.7
				c2.4-6.7,6.4-11.4,12.2-13.9c5.8-2.5,11.7-2.6,17.9-0.1c5.3,2.1,9.3,5.5,12.1,10.1c3.7,6.2,4.1,13,1.2,20.5
				c-3,7.5-7.8,12.3-14.5,14.4c-5.3,1.7-10.7,1.4-16.2-0.8c-6.2-2.4-10.5-6.6-13-12.4C86.9,276.7,87,270.7,89.6,264.7z M91.7,265.1
				c-1.5,3.8-0.7,7.5,2.4,11c2.6,2.9,6.8,5.5,12.8,7.9c7.1,2.8,12.9,3.6,17.3,2.5c3.1-0.8,5.2-2.8,6.4-5.9c0.8-2.1,1-4.1,0.5-5.9
				c-0.6-2.3-2.1-4.6-4.6-6.7c-2.5-2.1-6-4.1-10.7-5.9c-5.5-2.2-9.8-3.3-13-3.3c-3.1-0.1-5.6,0.5-7.3,1.6
				C93.8,261.4,92.6,263,91.7,265.1z M185.7,178.5l-11.2,11.1l1.7,4.4c0.6,1.5,1.2,2.5,1.9,3.2c0.9,0.9,1.9,1.2,3,0.9
				c0.7-0.2,1.9-1,3.7-2.5l0.9,0.9L175,207l-0.5-0.5l-12.7,19.2l-1-0.7l0.8-1.2c0.7-1.1,1.1-2.1,1.2-3c0-0.6-0.1-1.3-0.6-2
				c-0.3-0.5-1.4-1.4-3.3-2.6l-27.7-18.4l24.5,36.9l-0.4,0.7l-43.5-8l26.3,17.5c1.8,1.2,3,1.9,3.5,2.1c1.1,0.4,2.2,0.3,3.3-0.1
				c1.1-0.4,2.2-1.5,3.4-3.2l1,0.7l-8.5,12.8l-1-0.7l0.3-0.4c0.6-0.8,0.9-1.7,1.1-2.6c0.2-0.9,0.2-1.7-0.1-2.4
				c-0.2-0.7-0.7-1.4-1.4-2.2c-0.2-0.2-1.1-0.8-2.8-1.9l-23.6-15.7c-1.9-1.3-3.1-1.9-3.7-2.1c-0.6-0.1-1.3,0-2.1,0.4
				c-0.8,0.4-1.5,1.1-2.2,2.2l-0.8,1.2l-1-0.7l10.1-15.2l31.6,5.9l-17.9-26.5l10.1-15.2l1,0.7l-0.8,1.2c-0.7,1.1-1.1,2.1-1.2,3
				c0,0.6,0.1,1.3,0.6,2c0.3,0.5,1.4,1.4,3.2,2.6l24.6,16.4c1.9,1.3,3.2,2,3.8,2.1c0.6,0.1,1.3,0,2.1-0.4c0.8-0.4,1.5-1.1,2.2-2.2
				l0.8-1.2l0.6,0.4c0.9-1.2,1.3-2.6,1.2-4c0-1.5-0.7-4-2-7.5l-13.8-36.7l0.4-0.4l37.3,14.7c3.5,1.4,6,2.1,7.3,2c1,0,2-0.5,3.1-1.4
				l0.9,0.9l-15.4,15.3l-0.9-0.9l0.6-0.6c1.2-1.2,1.9-2.3,2.1-3.1c0.1-0.6-0.1-1.1-0.6-1.6c-0.3-0.3-0.6-0.5-1-0.7
				c-0.2-0.1-1-0.5-2.4-1.1L185.7,178.5z M183.2,177.6l-15.6-6.3l6,15.8L183.2,177.6z M252.6,143.6l0.6,1.1l-20.1,12l-0.6-1.1
				l1.3-0.8c1.1-0.7,1.9-1.4,2.3-2.2c0.3-0.6,0.4-1.2,0.3-2c-0.1-0.6-0.7-1.8-1.8-3.8l-15.1-25.3c-1.2-2-2-3.1-2.5-3.5
				c-0.5-0.4-1.2-0.5-2-0.5c-0.9,0-1.8,0.3-2.9,1l-1.3,0.8l-0.6-1.1l20.1-12l0.6,1l-1.3,0.8c-1.1,0.7-1.9,1.4-2.3,2.2
				c-0.3,0.6-0.5,1.2-0.4,2.1c0.1,0.6,0.7,1.8,1.8,3.8l15,25.3c1.2,2,2,3.1,2.5,3.5c0.5,0.4,1.2,0.5,2,0.5c0.9,0,1.8-0.3,2.9-1
				L252.6,143.6z M251,96l31.2,17l-7.5-17.8c-1-2.5-2.1-4-3.2-4.6c-1.5-0.8-3.3-0.6-5.6,0.4l-0.5-1.1l13.6-5.8l0.5,1.1
				c-1.7,1-2.7,1.7-3.2,2.4c-0.5,0.6-0.7,1.4-0.7,2.3c0,0.9,0.4,2.4,1.2,4.3l14.5,34.4l-1,0.4L248,106.5l11.1,26.3
				c1,2.4,2.2,3.7,3.7,4.1c1.4,0.4,2.9,0.3,4.3-0.3l1-0.4l0.5,1.1l-14.7,6.2l-0.5-1.1c2.3-1,3.7-2.1,4.2-3.4c0.5-1.3,0.3-3-0.6-5.2
				l-12.3-29.1l-1.3-0.7c-1.3-0.7-2.4-1.1-3.2-1.2c-0.8-0.1-1.9,0.2-3.1,0.6l-0.5-1.1L251,96z M327.7,72.3l2.7,11.8l-1.2,0.3
				c-1.3-2.6-2.5-4.4-3.6-5.3c-1.1-1-2.5-1.7-4.1-2.1c-0.9-0.2-2.4-0.1-4.4,0.4l-3.3,0.8l7.8,33.7c0.5,2.2,1,3.6,1.3,4.1
				c0.4,0.5,1,0.9,1.8,1.1c0.8,0.3,1.8,0.2,3.1-0.1l1.5-0.3l0.3,1.2l-22.9,5.3l-0.3-1.2l1.4-0.3c1.3-0.3,2.2-0.8,2.9-1.4
				c0.5-0.4,0.8-1,1-1.9c0.1-0.6-0.1-1.9-0.6-4.1l-7.8-33.7l-3.2,0.7c-2.9,0.7-4.9,1.8-6,3.4c-1.5,2.2-2.1,4.9-1.8,8.3l-1.2,0.3
				l-2.7-11.8L327.7,72.3z M354.1,72.3l1.2,18.2l0.9-0.1c2.8-0.2,4.8-1.2,6-3.1c1.2-1.9,1.8-4.5,1.9-8l1.3-0.1l1.5,23.4l-1.3,0.1
				c-0.4-2.5-1.1-4.6-2.1-6.2c-0.9-1.6-2-2.6-3.2-3.1c-1.2-0.5-2.8-0.7-4.9-0.5l0.8,12.6c0.2,2.5,0.4,4,0.6,4.5
				c0.2,0.5,0.7,1,1.3,1.3c0.6,0.3,1.5,0.4,2.8,0.4l2.7-0.2c4.2-0.3,7.5-1.4,9.9-3.5c2.4-2.1,4-5.2,4.9-9.2l1.2-0.1l-1.1,14.3
				l-38.7,2.5l-0.1-1.2l1.5-0.1c1.3-0.1,2.3-0.4,3.1-0.9c0.6-0.3,1-0.9,1.2-1.7c0.2-0.5,0.2-1.9,0.1-4.2l-1.9-29.4
				c-0.1-2-0.3-3.3-0.4-3.7c-0.3-0.8-0.7-1.3-1.3-1.7c-0.9-0.6-2-0.8-3.5-0.7l-1.5,0.1l-0.1-1.2l37.4-2.4l0.8,13.2l-1.3,0.1
				c-0.8-3.2-1.9-5.5-3.1-6.8c-1.2-1.3-2.9-2.3-5.1-2.8c-1.3-0.3-3.6-0.4-7-0.2L354.1,72.3z M404,72.3l-2,19.5l1.9,0.2
				c3,0.3,5.4,0.3,6.9-0.1c1.6-0.4,2.9-1.3,3.9-2.7c1-1.4,1.7-3.2,1.9-5.6c0.4-3.4-0.2-6-1.6-7.8c-1.4-1.8-3.9-2.9-7.4-3.2L404,72.3
				z M457,79l13.5,32.9l5.4-18.5c0.7-2.6,0.9-4.4,0.4-5.6c-0.7-1.5-2.2-2.6-4.6-3.3l0.3-1.2l14.2,4.1l-0.3,1.2
				c-1.9-0.3-3.2-0.3-3.9-0.2c-0.7,0.2-1.4,0.7-2,1.4c-0.6,0.7-1.2,2.1-1.8,4.1l-10.4,35.8l-1.1-0.3l-18.7-44.3l-7.9,27.4
				c-0.7,2.5-0.6,4.3,0.2,5.5c0.9,1.2,2.1,2,3.5,2.4l1,0.3l-0.3,1.2l-15.2-4.4l-12.5-1.3l-12.2-21.8l-2.9-0.3l-1.3,12.5
				c-0.3,2.4-0.3,3.9,0,4.6c0.2,0.7,0.7,1.2,1.4,1.7c0.7,0.5,2.1,0.8,4.1,1l-0.1,1.2l-22.8-2.4l0.1-1.2c2.1,0.2,3.5,0.2,4.3-0.1
				c0.8-0.3,1.3-0.7,1.7-1.3c0.4-0.6,0.7-2.1,0.9-4.5l3-28.9c0.3-2.4,0.3-3.9,0-4.6c-0.2-0.7-0.7-1.2-1.4-1.7
				c-0.7-0.5-2.1-0.8-4.1-1l0.1-1.2l20.7,2.2c5.4,0.6,9.3,1.4,11.7,2.4c2.4,1,4.3,2.6,5.7,4.8c1.4,2.2,1.9,4.6,1.6,7.3
				c-0.3,3.3-1.8,5.9-4.4,7.8c-1.7,1.2-3.9,2-6.7,2.4l9.1,16.2c1.2,2.1,2.1,3.4,2.6,4c0.8,0.8,1.8,1.3,3,1.4l0,0.2
				c1.7,0.3,3.1,0.2,4-0.3c1.2-0.7,2.1-2.2,2.8-4.5l8.8-30.4l-0.6-1.4c-0.6-1.4-1.2-2.4-1.8-3c-0.6-0.6-1.5-1.1-2.8-1.5l0.3-1.2
				L457,79z M504.4,131.3l-14.2-7l-3.6,3.1c-1.2,1-2,2-2.4,2.8c-0.6,1.1-0.5,2.2,0.1,3.2c0.4,0.6,1.6,1.5,3.6,2.7l-0.5,1.1
				l-13.4-6.6l0.5-1.1c1.5,0.5,3,0.5,4.4,0c1.4-0.5,3.6-2,6.4-4.3l30.3-24.9l0.6,0.3l-1.9,40.1c-0.2,3.8,0,6.3,0.5,7.6
				c0.4,0.9,1.1,1.8,2.3,2.5l-0.5,1.1l-19.4-9.6l0.5-1.1l0.8,0.4c1.6,0.8,2.8,1.1,3.6,1c0.6-0.1,1-0.4,1.3-1
				c0.2-0.4,0.3-0.7,0.4-1.2c0-0.2,0.1-1.1,0.2-2.7L504.4,131.3z M504.5,128.6l0.9-16.8l-13,10.8L504.5,128.6z M572.2,136.6l-7,9.9
				l-1-0.7c1-2.7,1.6-4.8,1.6-6.3c0-1.5-0.4-3-1.2-4.4c-0.5-0.8-1.5-1.8-3.3-3l-2.7-1.9l-19.9,28.3c-1.3,1.9-2,3.1-2.2,3.7
				c-0.1,0.6,0,1.3,0.3,2.1c0.4,0.8,1.1,1.5,2.1,2.3l1.2,0.9l-0.7,1l-19.2-13.5l0.7-1l1.2,0.9c1.1,0.8,2.1,1.2,3,1.2
				c0.6,0.1,1.3-0.1,2-0.5c0.5-0.3,1.4-1.4,2.7-3.2l19.9-28.3l-2.7-1.9c-2.5-1.7-4.6-2.5-6.5-2.2c-2.6,0.4-5,1.7-7.4,4.2l-1-0.7
				l7-9.9L572.2,136.6z M566,190.1l-0.8,0.9l-17.3-15.8l0.8-0.9l1.1,1c1,0.9,1.9,1.4,2.8,1.6c0.6,0.2,1.3,0.1,2-0.3
				c0.5-0.2,1.6-1.2,3.1-2.8l19.9-21.7c1.6-1.7,2.4-2.8,2.6-3.4c0.2-0.6,0.2-1.3-0.1-2.1c-0.3-0.8-0.8-1.6-1.8-2.5l-1.1-1l0.8-0.9
				l17.3,15.8l-0.8,0.9l-1.1-1c-1-0.9-1.9-1.4-2.8-1.6c-0.6-0.2-1.3-0.1-2.1,0.3c-0.5,0.2-1.6,1.2-3.1,2.8l-19.9,21.7
				c-1.6,1.7-2.4,2.8-2.6,3.4c-0.2,0.6-0.2,1.3,0.1,2.1c0.3,0.8,0.8,1.6,1.8,2.5L566,190.1z M617.7,181.7c4.7,5.4,6.8,11.2,6.2,17.4
				c-0.6,6.3-3.5,11.5-8.6,15.7c-4.4,3.6-9.3,5.5-14.8,5.6c-7.2,0.2-13.4-2.8-18.5-9c-5.1-6.2-6.9-12.8-5.5-19.7
				c1.1-5.4,4-10,8.6-13.8c5.2-4.2,10.9-6,17.2-5.3C608.5,173.4,613.7,176.4,617.7,181.7z M616.3,183.3c-2.6-3.2-6.2-4.3-10.8-3.3
				c-3.8,0.8-8.1,3.3-13.1,7.4c-5.9,4.8-9.4,9.5-10.6,13.9c-0.8,3.1-0.1,5.9,2,8.5c1.4,1.8,3.1,2.9,4.9,3.3c2.3,0.6,5,0.4,8.1-0.8
				c3.1-1.1,6.5-3.3,10.4-6.4c4.6-3.8,7.7-7,9.2-9.7c1.6-2.7,2.3-5.1,2.1-7.2C618.5,187,617.7,185.1,616.3,183.3z M645.4,222.6
				l-13.7,32.8l16.9-9.3c2.4-1.3,3.8-2.5,4.2-3.6c0.6-1.5,0.3-3.4-0.9-5.6l1.1-0.6l7.1,13l-1.1,0.6c-1.1-1.5-2-2.5-2.7-2.9
				c-0.7-0.4-1.4-0.5-2.4-0.4c-0.9,0.1-2.3,0.7-4.2,1.7l-32.7,18l-0.5-1l18.1-44.5l-25,13.7c-2.3,1.2-3.5,2.6-3.7,4.1
				c-0.2,1.5,0,2.9,0.8,4.2l0.5,0.9l-1.1,0.6l-7.7-13.9l1.1-0.6c1.2,2.1,2.5,3.4,3.8,3.8c1.3,0.4,3.1,0,5.1-1.2l27.7-15.2l0.6-1.4
				c0.6-1.4,0.9-2.5,0.8-3.3c0-0.8-0.3-1.8-1-3.1l1.1-0.6L645.4,222.6z M641.9,293.2l-5-15l-4.7-0.4c-1.6-0.1-2.8,0-3.7,0.3
				c-1.2,0.4-1.9,1.2-2.1,2.3c-0.1,0.7,0.1,2.1,0.6,4.4l-1.2,0.4L621,271l1.2-0.4c0.7,1.4,1.8,2.5,3.2,3.1c1.4,0.6,3.9,1.1,7.6,1.5
				l39,3.8l0.2,0.6l-29.7,27c-2.8,2.6-4.5,4.5-5,5.7c-0.4,0.9-0.4,2.1-0.1,3.4l-1.2,0.4l-6.9-20.5l1.2-0.4l0.3,0.8
				c0.6,1.6,1.2,2.7,1.9,3.2c0.5,0.3,1,0.4,1.7,0.2c0.4-0.1,0.7-0.3,1.1-0.6c0.2-0.1,0.9-0.7,2-1.7L641.9,293.2z M643.8,291.3
				l12.5-11.2l-16.8-1.6L643.8,291.3z M657.9,355l-15.8,0.7l-6.1-39.3l1.2-0.2l0.2,1.5c0.2,1.3,0.6,2.3,1.2,3c0.4,0.5,1,0.9,1.8,1.1
				c0.6,0.2,1.9,0.1,4.2-0.3l29.1-4.5c2.3-0.4,3.7-0.7,4.2-1c0.5-0.3,0.9-0.9,1.3-1.7c0.3-0.8,0.4-1.8,0.2-3.1l-0.2-1.5l1.2-0.2
				l3.6,23.6l-1.2,0.2l-0.3-1.9c-0.2-1.3-0.6-2.3-1.2-3c-0.4-0.5-1-0.9-1.8-1.1c-0.6-0.2-2-0.1-4.2,0.3l-28.2,4.3
				c-2.3,0.3-3.7,0.7-4.3,1.1c-0.6,0.4-1,0.9-1.2,1.7c-0.1,0.6,0,1.9,0.3,4l0.6,3.7c0.4,2.3,1.1,4.2,2.1,5.7
				c1.1,1.4,2.6,2.6,4.5,3.5c2,0.9,4.8,1.5,8.4,2L657.9,355z M96.3,326.1l14.1,2.8l1.6,0.4c1.2,0.2,2.1,0.1,2.8-0.4
				c0.7-0.5,1.2-1.3,1.4-2.5c0.3-1.7,0.3-3.4-0.2-5c-0.5-1.6-1.4-3-2.7-4c-1.3-1.1-2.9-1.8-4.6-2.1c-2-0.4-4-0.3-5.8,0.3
				c-1.8,0.6-3.2,1.7-4.2,3.2C97.7,320.4,96.9,322.8,96.3,326.1z"/>
			<path fill="#ED1C24" d="M508.5,622.2c5.9-3.4,11.6-4.3,17.4-2.6c5.7,1.7,10.1,5.3,13.1,10.9c2.6,4.8,3.4,9.7,2.6,14.8
				c-1.1,6.8-5,12-11.8,15.6c-6.8,3.6-13.2,4.1-19.3,1.5c-4.9-2.1-8.6-5.6-11.3-10.5c-3-5.6-3.6-11.2-1.8-17
				C499.1,629.2,502.8,624.9,508.5,622.2 M509.7,623.8c-3.4,1.8-5.1,5-5,9.5c0.1,3.7,1.6,8.2,4.5,13.6c3.4,6.4,7.1,10.5,11,12.4
				c2.7,1.3,5.5,1.2,8.3-0.3c1.9-1,3.2-2.3,4-3.9c1-2.1,1.2-4.6,0.8-7.7c-0.5-3.1-1.8-6.7-4.1-10.9c-2.7-5-5.1-8.4-7.4-10.4
				c-2.2-2-4.3-3.1-6.3-3.3C513.5,622.4,511.6,622.8,509.7,623.8z M576.9,610l7.7,12.9l-30.2,22.8l-0.7-0.9l1.1-0.9
				c1-0.7,1.6-1.5,2-2.3c0.3-0.6,0.3-1.2,0.1-2c-0.1-0.5-0.8-1.7-2.1-3.4l-16.9-22.3c-1.3-1.7-2.2-2.8-2.7-3.1
				c-0.5-0.3-1.2-0.4-2-0.3c-0.8,0.1-1.7,0.5-2.6,1.2l-1.1,0.9l-0.7-0.9l18.1-13.7l0.7,0.9l-1.5,1.1c-1,0.7-1.6,1.5-2,2.3
				c-0.3,0.6-0.3,1.2-0.1,2c0.1,0.5,0.8,1.7,2.1,3.4l16.3,21.6c1.3,1.7,2.2,2.8,2.8,3.1c0.6,0.3,1.2,0.4,2,0.2
				c0.5-0.2,1.6-0.9,3.2-2.1l2.8-2.1c1.8-1.4,3.1-2.8,3.8-4.4c0.7-1.5,1-3.3,0.8-5.4c-0.2-2-0.8-4.7-2.1-7.9L576.9,610z
				 M607.7,579.5l9.5,11.7L590.5,618l-0.8-0.8l1-1c0.9-0.9,1.4-1.7,1.6-2.6c0.2-0.6,0.1-1.2-0.2-1.9c-0.2-0.5-1-1.5-2.6-3
				l-19.9-19.8c-1.5-1.5-2.6-2.4-3.1-2.6c-0.6-0.2-1.2-0.2-2,0c-0.8,0.2-1.6,0.7-2.4,1.6l-1,1l-0.8-0.8l16-16.1l0.8,0.8l-1.3,1.3
				c-0.9,0.9-1.4,1.7-1.6,2.6c-0.2,0.6-0.1,1.3,0.2,2c0.2,0.5,1,1.5,2.6,3l19.2,19.1c1.5,1.5,2.6,2.4,3.2,2.7c0.6,0.2,1.3,0.2,2-0.1
				c0.5-0.2,1.5-1.1,2.9-2.5l2.5-2.5c1.6-1.6,2.6-3.2,3.1-4.8c0.5-1.6,0.5-3.4,0.1-5.4c-0.4-2-1.5-4.5-3.2-7.6L607.7,579.5z
				 M600,548.4l13.9,10.4l0.5-0.7c1.6-2.2,2.1-4.2,1.5-6.2c-0.6-2-2.2-4.1-4.6-6.4l0.7-1l17.9,13.3l-0.7,1c-2.1-1.2-4-2-5.7-2.3
				c-1.7-0.3-3.1-0.2-4.2,0.4c-1.1,0.5-2.2,1.6-3.4,3.2l9.6,7.2c1.9,1.4,3.1,2.2,3.6,2.3c0.5,0.2,1.1,0.1,1.7-0.1
				c0.6-0.2,1.3-0.8,2-1.8l1.5-2c2.4-3.2,3.6-6.3,3.5-9.3c0-3-1.3-6.1-3.7-9.2l0.7-0.9l9.7,9.6l-22,29.5l-0.9-0.7l0.8-1.1
				c0.7-1,1.2-1.9,1.3-2.8c0.1-0.6-0.1-1.2-0.5-1.9c-0.3-0.5-1.3-1.4-3-2.6l-22.4-16.8c-1.5-1.1-2.5-1.8-2.9-2
				c-0.7-0.3-1.4-0.3-2.1-0.1c-0.9,0.3-1.8,1-2.7,2.1l-0.8,1.1l-0.9-0.7l21.3-28.6l10.1,7.5l-0.7,1c-2.8-1.4-5.1-2-6.8-1.9
				c-1.7,0.1-3.4,0.7-5.2,2c-1,0.7-2.5,2.4-4.4,4.9L600,548.4z M631.5,490l13.3,7l-0.5,1c-4.3-0.7-8-0.3-11.2,1.2
				c-3.2,1.5-5.6,3.7-7.1,6.6c-1.5,2.8-1.9,5.6-1.3,8.3c0.6,2.7,2.1,5.2,4.5,7.5c2.4,2.3,5.1,4.2,8.1,5.8c3.6,1.9,7,3.2,10.2,3.7
				c3.2,0.6,5.9,0.3,8.2-0.9c2.3-1.2,4.1-3.1,5.5-5.7c0.5-0.9,0.9-1.9,1.2-2.9c0.3-1.1,0.5-2.2,0.7-3.4L655,514
				c-1.5-0.8-2.5-1.2-3-1.2c-0.5,0-1.2,0.2-1.8,0.6c-0.7,0.5-1.3,1.1-1.8,2l-0.5,1l-1-0.5l9.7-18.3l1,0.5c-0.6,1.4-1,2.5-1,3.2
				c0,0.7,0.3,1.4,0.8,2c0.3,0.4,1.1,0.9,2.4,1.6l7.8,4.1c-0.2,3-0.7,5.9-1.5,8.8c-0.8,2.9-2,5.7-3.5,8.5c-1.9,3.6-3.9,6.3-6.2,8.1
				c-2.2,1.8-4.6,3.2-7.1,4.2c-2.5,1-5.1,1.4-7.6,1.4c-3.2-0.1-6.4-0.9-9.6-2.6c-5.7-3-9.4-7.5-11.2-13.6c-1.8-6-1.1-12.1,2.1-18.1
				c1-1.9,2-3.5,3.1-4.8c0.6-0.7,1.7-1.8,3.4-3.3c1.7-1.5,2.6-2.4,2.8-2.7c0.3-0.5,0.3-1.1,0.2-1.7c-0.1-0.6-0.6-1.4-1.5-2.4
				L631.5,490z M641.3,472.9l16.4,5.6l0.3-0.8c0.9-2.6,0.7-4.7-0.5-6.4c-1.2-1.7-3.3-3.2-6.3-4.6l0.4-1.1l21.1,7.3l-0.4,1.1
				c-2.4-0.6-4.4-0.7-6.2-0.4c-1.7,0.3-3,0.8-3.9,1.6c-0.9,0.8-1.6,2.2-2.3,4.1l11.3,3.9c2.2,0.8,3.6,1.1,4.2,1.1
				c0.6,0,1.1-0.2,1.6-0.6c0.5-0.4,0.9-1.2,1.3-2.3l0.8-2.4c1.3-3.8,1.5-7.1,0.5-9.9c-1-2.9-3.1-5.4-6.3-7.6l0.4-1.1l12.2,6.2
				l-12,34.8l-1.1-0.4l0.5-1.3c0.4-1.2,0.5-2.2,0.4-3c-0.1-0.6-0.4-1.2-1-1.7c-0.4-0.4-1.6-0.9-3.6-1.6l-26.5-9.1
				c-1.8-0.6-3-1-3.4-1c-0.8,0-1.4,0.1-2,0.5c-0.8,0.6-1.4,1.5-1.9,2.8l-0.5,1.3l-1.1-0.4l11.6-33.7l11.9,4.1l-0.4,1.1
				c-3.1-0.4-5.5-0.3-7.1,0.3c-1.6,0.6-3.1,1.7-4.3,3.4c-0.7,1-1.6,3-2.7,6.1L641.3,472.9z M94.4,474.5L82,479.1
				c-2,0.7-3.3,1.3-3.7,1.7c-0.4,0.4-0.7,1-0.9,1.8c-0.1,0.8,0,1.8,0.4,2.9l0.5,1.3l-1.1,0.4l-7.7-20.9l1.1-0.4l0.5,1.3
				c0.4,1.2,1,2,1.6,2.6c0.5,0.4,1.1,0.6,1.8,0.7c0.6,0,1.8-0.3,3.8-1l26.3-9.7c2-0.8,3.3-1.3,3.7-1.7c0.4-0.4,0.7-1,0.9-1.8
				c0.1-0.8,0-1.8-0.4-2.9l-0.5-1.3l1.1-0.4l7.7,20.9l-1.1,0.4l-0.5-1.3c-0.4-1.2-1-2-1.6-2.6c-0.5-0.4-1.1-0.6-1.9-0.7
				c-0.6,0-1.8,0.3-3.8,1l-11.3,4.2l5.2,14.1l11.3-4.2c2-0.7,3.3-1.3,3.7-1.7c0.4-0.4,0.7-1,0.8-1.8c0.1-0.8,0-1.8-0.4-2.9l-0.5-1.3
				l1.1-0.4l7.7,20.9l-1.1,0.4l-0.5-1.3c-0.4-1.2-1-2-1.6-2.6c-0.5-0.4-1.1-0.6-1.9-0.7c-0.5,0-1.8,0.3-3.8,1l-26.3,9.7
				c-2,0.8-3.3,1.3-3.7,1.7c-0.4,0.4-0.7,1-0.9,1.8c-0.1,0.8,0,1.8,0.4,2.9l0.5,1.3L86,511l-7.7-20.9l1.1-0.4l0.5,1.3
				c0.4,1.2,1,2,1.6,2.6c0.5,0.4,1.1,0.6,1.9,0.7c0.5,0,1.8-0.3,3.8-1l12.4-4.6L94.4,474.5z M137.7,515.3c3.6,5.8,4.6,11.5,3.1,17.3
				c-1.5,5.8-5.1,10.2-10.5,13.4c-4.7,2.7-9.6,3.7-14.7,3c-6.8-0.9-12.1-4.7-15.9-11.3c-3.8-6.6-4.5-13.1-2.1-19.3
				c1.9-4.9,5.3-8.8,10.2-11.6c5.5-3.1,11.1-3.9,16.9-2.3C130.4,506.1,134.7,509.7,137.7,515.3z M136.1,516.6
				c-1.9-3.4-5.1-5-9.6-4.7c-3.7,0.2-8.1,1.8-13.4,4.8c-6.3,3.6-10.3,7.4-12.1,11.3c-1.2,2.7-1,5.5,0.6,8.3c1.1,1.9,2.4,3.2,4,3.9
				c2.1,0.9,4.6,1.1,7.7,0.5c3.1-0.6,6.6-2,10.7-4.4c4.9-2.8,8.3-5.4,10.2-7.7c1.9-2.3,2.9-4.4,3.1-6.4
				C137.6,520.4,137.1,518.5,136.1,516.6z M167.6,557.6l-11,9l-0.8-1c2.4-2.7,3.8-5.6,4-8.8c0.2-3.2-0.5-5.9-2.2-8.1
				c-1.3-1.7-2.8-2.7-4.5-2.9c-1.7-0.3-3.1,0-4.3,1c-0.7,0.6-1.3,1.3-1.6,2.1c-0.4,1.1-0.6,2.4-0.5,4.1c0.1,1.2,0.5,3.7,1.3,7.6
				c1.1,5.4,1.4,9.5,0.7,12.2c-0.7,2.7-2.1,4.9-4.3,6.6c-2.8,2.2-6.1,3-9.8,2.4c-3.7-0.6-6.9-2.6-9.5-6c-0.8-1.1-1.5-2.1-2-3.2
				c-0.5-1.1-1-2.6-1.5-4.5c-0.3-1-0.6-1.8-1-2.3c-0.3-0.4-0.9-0.8-1.6-1c-0.7-0.2-1.5-0.2-2.4,0l-0.7-0.9l12.7-9.9l0.7,0.9
				c-3,3.5-4.6,7-4.9,10.6c-0.3,3.5,0.5,6.5,2.4,8.9c1.4,1.8,3.1,2.9,5,3.2c1.9,0.3,3.5-0.1,4.8-1.1c0.8-0.6,1.4-1.4,1.8-2.4
				c0.4-1,0.6-2.2,0.6-3.6c0-1.4-0.3-3.6-0.9-6.6c-0.9-4.2-1.3-7.4-1.3-9.6c0-2.2,0.4-4.1,1.1-5.8c0.7-1.7,1.9-3.2,3.5-4.4
				c2.7-2.1,5.7-2.9,9.1-2.4c3.4,0.5,6.3,2.2,8.6,5.2c0.8,1.1,1.5,2.2,2.1,3.5c0.4,0.9,0.8,2.2,1.1,3.7c0.3,1.5,0.7,2.5,1,3
				c0.3,0.4,0.7,0.7,1.2,0.7c0.5,0,1.3-0.2,2.4-0.8L167.6,557.6z M163.9,589.1l-8.3,8.4c-1.6,1.6-2.6,2.8-2.8,3.4
				c-0.2,0.6-0.2,1.3,0.1,2.1c0.3,0.8,1.1,1.8,2.4,3.2l-0.8,0.8l-15.3-15.3l0.8-0.8c1.4,1.4,2.5,2.2,3.2,2.4c0.8,0.2,1.4,0.3,2.1,0
				c0.6-0.2,1.7-1.1,3.4-2.8l19.5-19.5c1.6-1.6,2.6-2.8,2.8-3.4c0.2-0.6,0.2-1.3,0-2.1c-0.2-0.8-1.1-1.8-2.4-3.2l0.8-0.8l13.1,13.1
				c4.3,4.3,6.7,8.2,7,11.6c0.3,3.4-0.6,6.3-2.9,8.6c-2,1.9-4.2,3-6.8,3.2c-2.6,0.2-5.2-0.5-7.9-2.2
				C169.9,594.7,167.3,592.5,163.9,589.1z M178.6,574.3l-13,13c0.5,0.5,0.8,0.9,1.1,1.2c1.8,1.8,3.7,2.7,5.8,2.6
				c2-0.1,4.2-1.3,6.4-3.5c2.2-2.2,3.4-4.4,3.4-6.4c0.1-2-0.9-4-2.8-5.9L178.6,574.3z M186.2,632.9l-0.7,0.9l-17.3-14l0.7-0.9
				l1.1,0.9c1,0.8,1.9,1.2,2.7,1.4c0.6,0.1,1.2,0,1.9-0.4c0.5-0.3,1.4-1.2,2.8-2.9l17.6-21.8c1.4-1.7,2.1-2.8,2.3-3.4
				c0.2-0.6,0.1-1.2-0.2-2c-0.3-0.8-0.9-1.5-1.8-2.3l-1.1-0.9l0.7-0.9l17.3,14l-0.7,0.9l-1.1-0.9c-1-0.8-1.9-1.2-2.7-1.4
				c-0.6-0.1-1.3,0-2,0.4c-0.5,0.2-1.4,1.2-2.8,2.9l-17.6,21.8c-1.4,1.7-2.1,2.8-2.3,3.4c-0.2,0.6-0.1,1.2,0.2,2
				c0.3,0.8,0.9,1.5,1.8,2.3L186.2,632.9z M244.9,622.2l-6.2,9.7l-1-0.6c0.9-2.6,1.3-4.6,1.2-6c-0.1-1.4-0.5-2.8-1.3-4.1
				c-0.5-0.7-1.5-1.7-3.2-2.7l-2.7-1.7l-17.7,27.7c-1.2,1.8-1.8,3-1.9,3.6c-0.1,0.6,0.1,1.2,0.4,2c0.4,0.7,1.1,1.4,2.1,2.1l1.2,0.8
				l-0.6,1l-18.8-12l0.6-1l1.2,0.8c1,0.7,2,1,2.9,1.1c0.6,0,1.3-0.1,1.9-0.6c0.5-0.3,1.3-1.4,2.4-3.1l17.7-27.7l-2.6-1.7
				c-2.4-1.5-4.5-2.2-6.2-1.8c-2.4,0.4-4.7,1.9-6.8,4.2l-1-0.6l6.2-9.7L244.9,622.2z M251.3,658.6l-13.6-6.4l-3.4,3
				c-1.1,1-1.9,1.9-2.2,2.7c-0.5,1.1-0.4,2.1,0.2,3c0.4,0.5,1.5,1.4,3.5,2.5l-0.5,1l-12.8-6l0.5-1.1c1.5,0.4,2.9,0.4,4.2-0.1
				c1.3-0.5,3.3-1.9,6-4.3l28.2-24.3l0.5,0.3l-0.8,38.1c-0.1,3.6,0.1,6,0.6,7.2c0.4,0.9,1.1,1.7,2.3,2.3l-0.5,1.1l-18.7-8.7l0.5-1.1
				l0.8,0.4c1.5,0.7,2.6,1,3.5,0.8c0.6-0.1,1-0.5,1.2-1c0.2-0.3,0.3-0.7,0.3-1.1c0-0.2,0.1-1,0.1-2.5L251.3,658.6z M251.3,656.1
				l0.5-16l-12.1,10.5L251.3,656.1z M309.8,676l-5.8,13.9l-36.3-10.7l0.3-1.1l1.4,0.4c1.2,0.3,2.2,0.4,3,0.2
				c0.6-0.1,1.1-0.5,1.6-1.1c0.4-0.4,0.8-1.7,1.5-3.7l7.9-26.9c0.6-2.1,0.9-3.4,0.8-4c-0.1-0.6-0.4-1.2-0.9-1.8
				c-0.6-0.6-1.4-1.1-2.6-1.4l-1.4-0.4l0.3-1.1l21.8,6.4l-0.3,1.1l-1.8-0.5c-1.2-0.3-2.2-0.4-3-0.2c-0.6,0.1-1.2,0.5-1.7,1.1
				c-0.4,0.4-0.8,1.6-1.4,3.7l-7.7,26c-0.6,2.1-0.9,3.5-0.8,4.1c0.1,0.6,0.4,1.2,1,1.7c0.4,0.3,1.6,0.8,3.6,1.3l3.4,1
				c2.2,0.6,4.1,0.8,5.8,0.5c1.7-0.3,3.3-1.2,4.8-2.5c1.5-1.3,3.3-3.5,5.2-6.4L309.8,676z M333.1,693.8l-0.2,1.1l-21.9-3.9l0.2-1.1
				l1.4,0.2c1.2,0.2,2.2,0.2,3-0.1c0.6-0.2,1.1-0.6,1.5-1.3c0.3-0.5,0.7-1.7,1-3.8l4.9-27.6c0.4-2.1,0.5-3.5,0.4-4.1
				c-0.1-0.6-0.5-1.1-1.1-1.7c-0.6-0.5-1.5-0.9-2.7-1.1l-1.4-0.2l0.2-1.1l21.9,3.9l-0.2,1.1l-1.4-0.2c-1.2-0.2-2.2-0.2-3.1,0.1
				c-0.6,0.2-1.1,0.6-1.5,1.3c-0.3,0.5-0.7,1.7-1,3.8l-4.9,27.6c-0.4,2.1-0.5,3.5-0.4,4.1c0.1,0.6,0.5,1.1,1.1,1.7
				c0.6,0.5,1.5,0.9,2.7,1.1L333.1,693.8z M379.3,656l0,0.2l19.6-1.6l0.1,1.2l-0.9,0.1c-1.2,0.1-2.1,0.3-2.5,0.7
				c-0.5,0.4-0.7,0.8-0.6,1.2c0.1,0.7,1.1,2.6,3,5.5l8.8,13.4l6.6-13.4c1.6-3.3,2.4-5.4,2.3-6.5c0-0.6-0.4-1-0.9-1.3
				c-0.8-0.5-2.1-0.7-4-0.6l-0.1-1.2l13-1.1l0.1,1.2c-1.4,0.3-2.4,0.8-3.1,1.5c-1,1-2.4,3.5-4.4,7.6l-7.9,16.1l0.8,10.3
				c0.2,2.2,0.4,3.5,0.7,4.1c0.3,0.5,0.8,0.9,1.5,1.3c0.7,0.4,1.6,0.5,2.8,0.4l2.4-0.2l0.1,1.2l-23.8,2l-0.1-1.2l2.2-0.2
				c1.3-0.1,2.2-0.4,2.9-0.9c0.5-0.3,0.9-0.9,1.2-1.6c0.2-0.5,0.2-1.8,0-4l-0.7-8.5l-11.5-17.4c-2.3-3.4-3.8-5.4-4.7-6
				c-0.8-0.5-1.7-0.7-2.8-0.7l-0.6,10.1l-1.1-0.1c-0.5-2.7-1.1-4.6-1.9-5.9c-0.7-1.2-1.8-2.2-3.2-3c-0.8-0.4-2.1-0.7-4.1-0.8
				l-3.2-0.2l-2.1,32.8c-0.1,2.2-0.1,3.5,0.1,4.1c0.2,0.6,0.6,1.1,1.3,1.5c0.7,0.5,1.6,0.7,2.8,0.8l1.4,0.1l-0.1,1.2l-22.2-1.4
				l0.1-1.2l1.4,0.1c1.2,0.1,2.2-0.1,3-0.5c0.6-0.3,1-0.7,1.4-1.4c0.3-0.5,0.5-1.8,0.6-3.9l2.1-32.8l-3.1-0.2
				c-2.9-0.2-5,0.3-6.4,1.4c-1.9,1.6-3.2,3.9-3.9,7l-1.2-0.1l0.7-11.5L379.3,656z M486.4,633.1l4.8,14l-1.2,0.4
				c-2.1-3.3-4.7-5.6-7.7-6.7c-3-1.1-6.1-1.2-9.1-0.1c-2.5,0.9-4.6,2.4-6.2,4.5c-1.6,2.2-2.5,4.6-2.7,7.3c-0.2,3.4,0.3,7,1.6,10.6
				c1.2,3.6,2.8,6.7,4.7,9.4c1.9,2.6,4.1,4.4,6.6,5.2c2.5,0.9,5.2,0.7,8.3-0.3c2.5-0.9,4.7-2.2,6.4-4.1c1.7-1.8,3.3-4.5,4.7-8
				l1.2,3.5c-1.4,3.1-3.2,5.6-5.3,7.5c-2.1,1.9-4.8,3.4-8,4.5c-4.3,1.5-8.4,1.9-12.3,1.3c-3.9-0.6-7.3-2.2-10.3-4.8
				c-2.9-2.6-5-5.7-6.3-9.4c-1.3-3.8-1.6-7.8-0.7-12c0.8-4.1,2.6-7.7,5.4-10.8c2.8-3.1,6.1-5.3,9.9-6.6c2.8-1,6-1.4,9.6-1.2
				c2.1,0.1,3.3,0,3.8-0.1c0.6-0.2,1.1-0.6,1.4-1.3c0.3-0.6,0.4-1.5,0.1-2.5L486.4,633.1z M246.9,497.9h2.5"/>
			<path fill="#ED1C24" d="M375.2,255c-17.5,0-34.6-0.3-51.2-0.9l15.1-23.4l-18-27.9l-18,27.9l15,23.2c-16.2-0.6-31.9-1.5-47-2.6
				c-0.5-16.2-9.1-29.1-19.5-29.1c-2.5,0-4.9,0.8-7.1,2.1c6.8,4.2,11.7,14,12.4,25.9l-0.1,0v14.8h255.9v-16.5l-0.4,0
				c1-11,5.8-20.2,12.2-24.1c-2.2-1.4-4.6-2.1-7.1-2.1c-10.1,0-18.5,12.1-19.4,27.6c-19.2,1.7-39.5,3.1-60.6,4l14.9-23l-18-27.9
				l-18,27.9l15,23.2c-16.6,0.6-33.7,1-51.1,1l25.4-39.3l-27.3-42.2l-27.3,42.2l25.4,39.3L375.2,255z"/>
			<path fill="#ED1C24" d="M399.9,550.4c0,12.1-6.8,22-15.3,22c-8.4,0-15.3-9.8-15.3-22c0-12.1,15.3-22,15.3-22
				S399.9,538.2,399.9,550.4 M384.2,519.3c-31.4-20.4-130.5-18.1-134.9-18l0.2,6.8c1,0,98.7-2.3,129.6,16
				c-6.3,5.3-15.7,15-15.7,26.2c0,16.8,9.4,30.4,21.1,30.4c11.7,0,21.1-13.6,21.1-30.4c0-11.4-9.7-21.3-16-26.5
				c31.4-18.1,128.2-15.8,129.2-15.8l0.2-6.8C514.8,501.2,415.7,498.9,384.2,519.3z"/>
			<path fill="#ED1C24" d="M395.3,504.9c47.5,0,92.7,1.7,133.8,4.9v-11.4H240.2v13.2C286.7,507.3,339.4,504.9,395.3,504.9"/>
			<polygon fill="#001847" points="82.1,378.5 87.3,394.6 104.3,394.6 90.5,404.6 95.8,420.7 82.1,410.7 68.3,420.7 73.6,404.6 
				59.8,394.6 76.8,394.6 			"/>
			<polygon fill="#001847" points="670.9,378.5 676.1,394.6 693.1,394.6 679.4,404.6 684.6,420.7 670.9,410.7 657.2,420.7 
				662.4,404.6 648.7,394.6 665.7,394.6 			"/>
			<path fill="#001847" d="M206.6,275.1h39.7c12.5,0,22,1.4,28.5,4.1c6.5,2.7,11.7,8.2,15.6,16.5c4,8.3,6,21.6,6,39.9
				c0,12.4-1.4,21.1-4.2,26c-2.8,4.9-8.3,8.7-16.6,11.3c9.2,2.9,15.4,7.7,18.7,14.4c3.3,6.7,4.9,17,4.9,30.8v19.7
				c0,14.4-1.2,25-3.5,31.9c-2.4,6.9-6.1,11.6-11.3,14.2c-5.2,2.5-15.7,3.8-31.7,3.8h-46V275.1z M246.4,311.5v47.3
				c1.7-0.1,3-0.1,4-0.1c3.9,0,6.4-1.3,7.5-4c1.1-2.7,1.6-10.3,1.6-22.9c0-6.6-0.4-11.3-1.3-14c-0.9-2.7-2-4.4-3.4-5.1
				C253.2,312,250.5,311.6,246.4,311.5z M246.4,391.8v59.5c5.6-0.3,9.2-1.5,10.7-3.7c1.5-2.2,2.3-7.6,2.3-16.1v-19.8
				c0-9.1-0.7-14.6-2.1-16.5C255.9,393.2,252.3,392.1,246.4,391.8z"/>
			<rect x="313.4" y="275.1" fill="#001847" width="39.8" height="212.6"/>
			<polygon fill="#001847" points="460.5,275.1 460.5,487.7 420.8,487.7 420.8,398.4 408.9,398.4 408.9,487.7 369.1,487.7 
				369.1,275.1 408.9,275.1 408.9,351.1 420.8,351.1 420.8,275.1 			"/>
			<path fill="#001847" d="M569.3,367.7h-39.8v-36.9c0-10.7-0.4-17.4-1.3-20.1c-0.9-2.7-2.7-4-5.6-4c-3.3,0-5.4,1.6-6.2,4.9
				c-0.9,3.2-1.3,10.2-1.3,21v98.7c0,10.3,0.4,17.1,1.3,20.2c0.9,3.2,2.9,4.7,5.9,4.7c3,0,4.9-1.6,5.8-4.7
				c0.9-3.2,1.4-10.6,1.4-22.2v-26.7h39.8v8.3c0,22-1.1,37.6-3.4,46.8c-2.2,9.2-7.2,17.3-14.8,24.2c-7.6,6.9-17.1,10.4-28.3,10.4
				c-11.6,0-21.2-2.9-28.8-8.8c-7.6-5.9-12.6-14-15-24.4c-2.5-10.4-3.7-26-3.7-46.8v-62.1c0-15.3,0.4-26.8,1.1-34.5
				c0.8-7.7,3-15,6.8-22.1c3.7-7.1,8.9-12.7,15.6-16.7c6.6-4.1,14.3-6.1,22.9-6.1c11.7,0,21.4,3.1,29,9.4c7.6,6.3,12.6,14.1,15,23.5
				c2.4,9.4,3.6,24,3.6,43.9V367.7z"/>
		</g>
	</g>
</g>
<g>
	<rect x="1799.6" y="441.2" fill="#143B79" width="1083.4" height="3.1"/>
	
		<rect x="1799.6" y="441.2" fill="none" stroke="#143B79" stroke-width="0.257" stroke-miterlimit="22.926" width="1083.4" height="3.1"/>
	<g>
		<path fill-rule="evenodd" fill="#ED1C24" d="M2726.4,234.4l-0.1,90.8c25.4,4.1,51.5-5.5,90.1-2.8l0.1-90.9
			c-14.1-1.4-31.1-0.9-45,1.1C2754.6,235.2,2743.5,235,2726.4,234.4"/>
		<path fill-rule="evenodd" fill="#FFFFFF" d="M2764.1,252.4c-0.8,3.2-0.4,10.7-0.3,14.7l-0.2,3.4c-1,4.3-13.5,2.4-20,2.5l-0.1,15.3
			c7,1.1,13.4-0.1,20.1-0.2l0.2,18.9l15.5-1.6l0.1-19.8c5.3-1.7,14.6-1.1,20.1-0.9c0.4-4,1-12.3-0.5-15.7l-19.7,0.3v-18.2
			L2764.1,252.4z"/>
	</g>
	
		<text transform="matrix(1 0 0 1 1946.9647 412.2071)" fill="#ED1C24" font-family="'TimesNewRomanPS-BoldMT'" font-size="204.1942px">B.</text>
	
		<text transform="matrix(1 0 0 1 2134.1941 412.2071)" fill="#143B79" font-family="'TimesNewRomanPS-BoldMT'" font-size="204.1942px">H.M.S.</text>
	<text transform="matrix(1 0 0 1.0104 1791.8309 524.6036)" fill="#ED1C24" font-family="'Georgia'" font-size="65.5452px">B</text>
	<text transform="matrix(1 0 0 1.0104 1834.6884 524.6036)" fill="#143B79" font-family="'Georgia'" font-size="65.5452px">usiness &amp; Hotel Management School</text>
	<text transform="matrix(1 0 0 1 2065.7966 599.7657)" fill="#6D6E70" font-family="'Georgia'" font-size="68.1705px">Lucerne, Switzerland</text>
</g>
<g>
	<text transform="matrix(1 0 0 1.0813 1094.0402 417.821)" fill="#ED1C24" font-family="'Georgia'" font-size="45.2818px">in partnership with</text>
</g>
</svg>
