<?xml version="1.0" encoding="utf-8"?>
<!-- Generator: Adobe Illustrator 22.0.1, SVG Export Plug-In . SVG Version: 6.00 Build 0)  -->
<svg version="1.1" id="Layer_1" xmlns="http://www.w3.org/2000/svg" xmlns:xlink="http://www.w3.org/1999/xlink" x="0px" y="0px"
	 viewBox="0 0 500 500" style="enable-background:new 0 0 500 500;" xml:space="preserve">
<style type="text/css">
	.st0{fill:#FFFFFF;}
</style>
<g>
	<g>
		<g>
			<path class="st0" d="M249.9,494.1c-134.5,0-244-109.5-244-244.1S115.4,6,249.9,6C384.5,6,494,115.4,494,250
				S384.5,494.1,249.9,494.1 M249.9,8.3C116.6,8.3,8.2,116.7,8.2,250s108.4,241.7,241.7,241.7S491.6,383.3,491.6,250
				C491.7,116.7,383.2,8.3,249.9,8.3z"/>
			<path class="st0" d="M249.9,488c-131.3,0-238-106.8-238-238c0-131.3,106.8-238,238-238c131.3,0,238,106.8,238,238
				C488,381.3,381.2,488,249.9,488 M249.9,18.9C122.5,18.9,18.8,122.6,18.8,250s103.7,231.1,231.1,231.1S481,377.4,481,250
				C481.1,122.6,377.4,18.9,249.9,18.9z"/>
			<path class="st0" d="M249.9,405.6c-85.8,0-155.6-69.8-155.6-155.6S164.1,94.4,249.9,94.4S405.5,164.2,405.5,250
				S335.7,405.6,249.9,405.6 M249.9,101.3c-82,0-148.7,66.7-148.7,148.7s66.7,148.7,148.7,148.7S398.6,332,398.6,250
				C398.6,168,331.9,101.3,249.9,101.3z"/>
			<path class="st0" d="M249.9,414.6c-90.8,0-164.6-73.8-164.6-164.6S159.1,85.4,249.9,85.4S414.5,159.3,414.5,250
				C414.6,340.8,340.7,414.6,249.9,414.6 M249.9,87.7c-89.5,0-162.3,72.8-162.3,162.3s72.8,162.3,162.3,162.3S412.2,339.5,412.2,250
				C412.3,160.5,339.4,87.7,249.9,87.7z"/>
			<path class="st0" d="M58.3,206.4c1.2-2.7,2.4-4.5,3.6-5.5c1.7-1.4,3.6-1.9,5.7-1.4c2.3,0.5,3.9,1.7,5.1,3.8
				c1.3,2.6,1.6,6,0.7,10.2l-3,15.2l-0.8-0.2c0.3-1.4,0.3-2.3,0.2-2.9c-0.2-0.5-0.4-1-0.8-1.2c-0.4-0.3-1.4-0.6-3-0.9l-19.4-3.9
				c-1.6-0.3-2.7-0.4-3.1-0.3c-0.5,0.1-0.9,0.4-1.2,0.8c-0.3,0.5-0.7,1.4-0.9,2.7l-0.8-0.2l2.9-14.4c0.7-3.4,1.5-5.8,2.4-7.1
				s2-2.3,3.4-2.8c1.4-0.6,2.8-0.7,4.1-0.5c1.4,0.3,2.6,1.1,3.5,2.3C57.7,201.6,58.2,203.6,58.3,206.4 M56.1,214.3
				c0.4-2.1,0.5-3.7,0.2-4.8s-0.8-2-1.5-2.7c-0.8-0.7-1.8-1.2-3.1-1.4c-1.3-0.3-2.5-0.2-3.4,0.1c-1,0.4-1.7,1-2.4,1.9
				c-0.6,0.9-1.2,2.4-1.6,4.6L56.1,214.3z M53.3,172.8c1.6-4.6,4.4-7.8,8.3-9.5s8-1.8,12.2-0.1c3.6,1.4,6.4,3.7,8.3,6.9
				c2.5,4.2,2.8,8.9,0.8,14s-5.3,8.4-9.9,9.8c-3.6,1.1-7.3,1-11.1-0.5c-4.2-1.7-7.2-4.5-8.9-8.5C51.5,180.9,51.5,176.9,53.3,172.8z
				 M54.8,173c-1,2.6-0.5,5.1,1.6,7.5c1.7,2,4.7,3.7,8.7,5.4c4.8,1.9,8.8,2.5,11.8,1.7c2.1-0.5,3.6-1.9,4.4-4c0.6-1.4,0.7-2.8,0.4-4
				c-0.4-1.6-1.5-3.1-3.2-4.6s-4.1-2.8-7.3-4.1c-3.8-1.5-6.7-2.2-8.9-2.3c-2.1,0-3.8,0.3-5,1.1C56.2,170.5,55.3,171.6,54.8,173z
				 M118.8,114l-7.7,7.6l1.2,3c0.4,1,0.8,1.7,1.3,2.2c0.6,0.6,1.3,0.8,2.1,0.6c0.5-0.1,1.3-0.7,2.5-1.7l0.6,0.6l-7.2,7.2l-0.3-0.3
				l-8.7,13.1l-0.7-0.5l0.5-0.8c0.5-0.7,0.8-1.4,0.8-2.1c0-0.4-0.1-0.9-0.4-1.3c-0.2-0.3-1-0.9-2.2-1.8l-18.9-12.5l16.7,25.2
				l-0.3,0.5l-29.6-5.4l17.9,11.9c1.3,0.8,2,1.3,2.4,1.4c0.7,0.3,1.5,0.2,2.2,0c0.8-0.3,1.5-1,2.3-2.2L94,159l-5.8,8.7l-0.7-0.5
				l0.2-0.3c0.4-0.6,0.6-1.1,0.8-1.8c0.1-0.6,0.1-1.2,0-1.6c-0.2-0.5-0.5-1-1-1.5c-0.1-0.1-0.8-0.6-1.9-1.3L69.5,150
				c-1.3-0.9-2.1-1.3-2.5-1.4c-0.4-0.1-0.9,0-1.4,0.3s-1,0.8-1.5,1.5l-0.5,0.8l-0.7-0.5l6.9-10.4l21.5,4l-12.2-18.1L86,116l0.7,0.5
				l-0.5,0.8c-0.5,0.8-0.8,1.4-0.8,2.1c0,0.4,0.1,0.9,0.4,1.3c0.2,0.3,0.9,0.9,2.2,1.8l16.8,11.2c1.3,0.9,2.2,1.3,2.6,1.4
				c0.4,0.1,0.9,0,1.4-0.3s1-0.8,1.5-1.5l0.5-0.8l0.4,0.3c0.6-0.8,0.9-1.7,0.8-2.7c0-1-0.5-2.7-1.4-5.1l-9.4-25l0.3-0.3l25.5,10
				c2.4,0.9,4.1,1.4,5,1.4c0.7,0,1.4-0.3,2.1-0.9l0.6,0.6L124.1,121l-0.6-0.6l0.4-0.4c0.8-0.8,1.3-1.5,1.4-2.1
				c0.1-0.4-0.1-0.8-0.4-1.1c-0.2-0.2-0.4-0.4-0.7-0.5c-0.1-0.1-0.7-0.3-1.7-0.7L118.8,114z M117.1,113.4l-10.6-4.3l4.1,10.8
				L117.1,113.4z M164.5,90.2l0.4,0.7l-13.7,8.2l-0.4-0.7l0.9-0.5c0.8-0.5,1.3-1,1.6-1.5c0.2-0.4,0.3-0.8,0.2-1.4
				c0-0.4-0.5-1.3-1.2-2.6L142,75.1c-0.8-1.3-1.4-2.1-1.7-2.4s-0.8-0.4-1.4-0.4c-0.6,0-1.2,0.2-2,0.7l-0.9,0.5l-0.4-0.7l13.7-8.2
				l0.4,0.7l-0.9,0.5c-0.8,0.5-1.3,1-1.6,1.5c-0.2,0.4-0.3,0.8-0.2,1.4c0,0.4,0.5,1.2,1.2,2.6l10.3,17.3c0.8,1.3,1.4,2.1,1.7,2.4
				c0.3,0.2,0.8,0.4,1.4,0.4c0.6,0,1.2-0.2,2-0.7L164.5,90.2z M163.4,57.7l21.3,11.6l-5.1-12.1c-0.7-1.7-1.4-2.7-2.2-3.1
				c-1-0.5-2.3-0.4-3.8,0.2l-0.3-0.8l9.3-3.9l0.3,0.8c-1.1,0.7-1.8,1.2-2.1,1.6c-0.3,0.4-0.5,0.9-0.5,1.6c0,0.6,0.3,1.6,0.8,3
				L191,80l-0.7,0.3l-28.9-15.4l7.5,17.9c0.7,1.6,1.5,2.6,2.5,2.8c1,0.3,1.9,0.2,2.9-0.2l0.7-0.3l0.3,0.8l-10,4.2l-0.3-0.8
				c1.5-0.7,2.5-1.4,2.8-2.3s0.2-2.1-0.4-3.6L159,63.5l-0.9-0.5c-0.9-0.5-1.6-0.8-2.2-0.8c-0.6,0-1.3,0.1-2.1,0.4l-0.3-0.8
				L163.4,57.7z M215.7,41.6l1.9,8.1l-0.8,0.2c-0.9-1.7-1.7-3-2.5-3.6c-0.8-0.7-1.7-1.1-2.8-1.4c-0.6-0.1-1.6,0-3,0.3l-2.2,0.5
				l5.3,23c0.4,1.5,0.7,2.5,0.9,2.8c0.3,0.3,0.7,0.6,1.2,0.8c0.6,0.2,1.3,0.2,2.1,0l1-0.2l0.2,0.8l-15.6,3.6l-0.2-0.8l1-0.2
				c0.9-0.2,1.5-0.5,2-0.9c0.3-0.3,0.6-0.7,0.7-1.3c0.1-0.4-0.1-1.3-0.4-2.8l-5.3-23l-2.1,0.5c-2,0.5-3.4,1.2-4.1,2.3
				c-1,1.5-1.4,3.4-1.2,5.6l-0.8,0.2l-1.9-8.1L215.7,41.6z M233.7,41.6l0.8,12.4h0.6c1.9-0.1,3.3-0.8,4.1-2.1s1.2-3.1,1.3-5.5
				l0.9-0.1l1,16l-0.9,0.1c-0.3-1.7-0.8-3.1-1.4-4.2c-0.6-1.1-1.4-1.8-2.2-2.1s-1.9-0.5-3.4-0.4l0.5,8.6c0.1,1.7,0.2,2.7,0.4,3.1
				s0.5,0.7,0.9,0.9c0.4,0.2,1,0.3,1.9,0.2l1.8-0.1c2.8-0.2,5.1-1,6.7-2.4c1.6-1.4,2.7-3.5,3.3-6.3l0.8-0.1l-0.8,9.8l-26.4,1.7
				l-0.1-0.8l1-0.1c0.9-0.1,1.6-0.3,2.1-0.6c0.4-0.2,0.7-0.6,0.8-1.1c0.1-0.4,0.2-1.3,0.1-2.9l-1.3-20.1c-0.1-1.4-0.2-2.2-0.3-2.5
				c-0.2-0.5-0.5-0.9-0.9-1.2c-0.6-0.4-1.4-0.5-2.4-0.5l-1,0.1l-0.1-0.8L247,39l0.6,9l-0.9,0.1c-0.6-2.2-1.3-3.7-2.1-4.6
				c-0.8-0.9-2-1.5-3.5-1.9c-0.9-0.2-2.4-0.2-4.7-0.1L233.7,41.6z M267.7,41.6l-1.4,13.3l1.3,0.1c2.1,0.2,3.7,0.2,4.7-0.1
				c1.1-0.3,2-0.9,2.6-1.8c0.7-0.9,1.1-2.2,1.3-3.8c0.2-2.3-0.1-4.1-1.1-5.3s-2.7-2-5.1-2.2L267.7,41.6z M303.8,46.1l9.2,22.4
				l3.7-12.6c0.5-1.8,0.6-3,0.3-3.8c-0.4-1-1.5-1.8-3.1-2.2l0.2-0.8l9.7,2.8l-0.2,0.8c-1.3-0.2-2.2-0.2-2.7-0.1
				c-0.5,0.1-0.9,0.4-1.4,0.9c-0.4,0.5-0.8,1.4-1.2,2.8l-7.1,24.4l-0.7-0.2l-12.8-30.2L292.3,69c-0.5,1.7-0.4,2.9,0.2,3.8
				c0.6,0.8,1.4,1.4,2.4,1.7l0.7,0.2l-0.2,0.8l-10.4-3l-8.5-0.9l-8.3-14.9l-2-0.2l-0.9,8.5c-0.2,1.6-0.2,2.7,0,3.1s0.5,0.8,1,1.1
				c0.5,0.3,1.4,0.5,2.8,0.7l-0.1,0.8l-15.6-1.6l0.1-0.8c1.4,0.1,2.4,0.1,2.9-0.1s0.9-0.5,1.2-0.9c0.2-0.4,0.5-1.4,0.6-3.1l2.1-19.7
				c0.2-1.6,0.2-2.7,0-3.1c-0.2-0.4-0.5-0.8-1-1.1s-1.4-0.5-2.8-0.7l0.1-0.8l14.1,1.5c3.7,0.4,6.3,0.9,8,1.6
				c1.6,0.7,2.9,1.8,3.9,3.3c0.9,1.5,1.3,3.1,1.1,5c-0.2,2.2-1.2,4-3,5.3c-1.1,0.8-2.6,1.4-4.5,1.6l6.2,11.1
				c0.8,1.4,1.4,2.3,1.8,2.7c0.6,0.5,1.2,0.9,2,1V72c1.2,0.2,2.1,0.1,2.7-0.2c0.8-0.5,1.5-1.5,1.9-3l6-20.7l-0.4-1
				c-0.4-1-0.8-1.6-1.2-2c-0.4-0.4-1.1-0.7-1.9-1l0.2-0.8L303.8,46.1z M336.1,81.8l-9.7-4.8l-2.5,2.1c-0.8,0.7-1.4,1.3-1.7,1.9
				c-0.4,0.8-0.4,1.5,0.1,2.2c0.3,0.4,1.1,1,2.4,1.8l-0.4,0.7l-9.1-4.5l0.4-0.7c1.1,0.3,2.1,0.3,3,0c1-0.4,2.4-1.3,4.4-3l20.6-17
				l0.4,0.2L342.7,88c-0.1,2.6,0,4.3,0.3,5.2c0.2,0.6,0.8,1.2,1.6,1.7l-0.4,0.7L331,89l0.4-0.7l0.5,0.3c1.1,0.5,1.9,0.7,2.5,0.7
				c0.4-0.1,0.7-0.3,0.9-0.7c0.1-0.2,0.2-0.5,0.2-0.8c0-0.1,0.1-0.7,0.1-1.8L336.1,81.8z M336.2,80l0.6-11.5l-8.9,7.3L336.2,80z
				 M382.4,85.4l-4.8,6.8l-0.7-0.5c0.7-1.8,1.1-3.3,1.1-4.3s-0.3-2-0.8-3c-0.3-0.5-1.1-1.2-2.2-2.1l-1.9-1.3l-13.6,19.3
				c-0.9,1.3-1.4,2.1-1.5,2.5s0,0.9,0.2,1.4s0.7,1,1.4,1.5l0.8,0.6l-0.5,0.7L347,97.9l0.5-0.7l0.8,0.6c0.7,0.5,1.4,0.8,2,0.8
				c0.4,0.1,0.9-0.1,1.4-0.4c0.3-0.2,1-0.9,1.8-2.2l13.6-19.3l-1.8-1.3c-1.7-1.2-3.2-1.7-4.4-1.5c-1.8,0.2-3.4,1.2-5,2.8l-0.7-0.5
				l4.8-6.8L382.4,85.4z M378.1,121.9l-0.6,0.6l-11.8-10.8l0.6-0.6l0.7,0.7c0.7,0.6,1.3,1,1.9,1.1c0.4,0.1,0.9,0,1.4-0.2
				c0.4-0.2,1.1-0.8,2.1-1.9L386.1,96c1.1-1.1,1.7-1.9,1.8-2.3c0.1-0.4,0.1-0.9,0-1.4c-0.2-0.6-0.6-1.1-1.2-1.7l-0.7-0.7l0.6-0.6
				l11.8,10.8l-0.6,0.6l-0.7-0.7c-0.7-0.6-1.3-1-1.9-1.1c-0.4-0.1-0.9-0.1-1.4,0.2c-0.4,0.2-1.1,0.8-2.1,1.9l-13.6,14.8
				c-1.1,1.2-1.7,1.9-1.8,2.3c-0.1,0.4-0.1,0.9,0.1,1.4c0.2,0.6,0.6,1.1,1.2,1.7L378.1,121.9z M413.3,116.2
				c3.2,3.7,4.6,7.6,4.2,11.9c-0.4,4.3-2.4,7.8-5.9,10.7c-3,2.5-6.4,3.7-10.1,3.9c-4.9,0.1-9.1-1.9-12.6-6.1
				c-3.5-4.3-4.7-8.7-3.8-13.4c0.8-3.7,2.7-6.8,5.8-9.4c3.5-2.9,7.4-4.1,11.7-3.6C407.1,110.5,410.6,112.6,413.3,116.2z
				 M412.4,117.3c-1.8-2.2-4.2-2.9-7.4-2.2c-2.6,0.6-5.5,2.2-8.9,5c-4,3.3-6.4,6.5-7.2,9.5c-0.5,2.1-0.1,4,1.4,5.8
				c1,1.2,2.1,2,3.3,2.3c1.6,0.4,3.4,0.2,5.5-0.5c2.1-0.8,4.5-2.2,7.1-4.4c3.1-2.6,5.2-4.8,6.3-6.6c1.1-1.9,1.6-3.5,1.5-4.9
				C413.9,119.8,413.3,118.5,412.4,117.3z M432.3,144.1l-9.3,22.3l11.5-6.3c1.6-0.9,2.6-1.7,2.9-2.5c0.4-1.1,0.2-2.3-0.6-3.8
				l0.7-0.4l4.9,8.8l-0.7,0.4c-0.8-1.1-1.4-1.7-1.8-2s-1-0.4-1.6-0.3c-0.6,0.1-1.6,0.5-2.9,1.1l-22.3,12.3l-0.4-0.7l12.3-30.4
				l-17,9.4c-1.5,0.8-2.4,1.8-2.5,2.8c-0.2,1,0,2,0.5,2.9l0.3,0.6l-0.7,0.4l-5.2-9.5l0.7-0.4c0.8,1.5,1.7,2.3,2.6,2.6s2.1,0,3.5-0.8
				l18.9-10.4l0.4-1c0.4-1,0.6-1.7,0.6-2.3s-0.2-1.3-0.7-2.1l0.7-0.4L432.3,144.1z M429.9,192.2l-3.4-10.2l-3.2-0.3
				c-1.1-0.1-1.9,0-2.5,0.2c-0.8,0.3-1.3,0.8-1.5,1.6c-0.1,0.5,0,1.5,0.4,3l-0.8,0.3l-3.2-9.6l0.8-0.3c0.5,1,1.2,1.7,2.2,2.1
				c0.9,0.4,2.7,0.8,5.2,1l26.6,2.6l0.1,0.4l-20.2,18.4c-1.9,1.8-3.1,3-3.4,3.9c-0.3,0.6-0.3,1.4-0.1,2.3l-0.8,0.3l-4.7-14l0.8-0.3
				l0.2,0.6c0.4,1.1,0.8,1.9,1.3,2.2c0.3,0.2,0.7,0.3,1.1,0.1c0.3-0.1,0.5-0.2,0.7-0.4c0.1-0.1,0.6-0.5,1.4-1.2L429.9,192.2z
				 M431.2,190.9l8.5-7.7l-11.5-1.1L431.2,190.9z M440.7,234.3l-10.8,0.5l-4.1-26.8l0.8-0.1l0.2,1c0.1,0.9,0.4,1.6,0.8,2
				c0.3,0.4,0.7,0.6,1.2,0.7c0.4,0.1,1.3,0,2.8-0.2l19.9-3.1c1.5-0.2,2.5-0.5,2.9-0.7s0.6-0.6,0.9-1.1c0.2-0.5,0.3-1.2,0.1-2.1
				l-0.2-1l0.8-0.1l2.5,16.1l-0.8,0.1l-0.2-1.3c-0.1-0.9-0.4-1.6-0.8-2c-0.3-0.4-0.7-0.6-1.2-0.8c-0.4-0.1-1.3,0-2.8,0.2l-19.2,3
				c-1.5,0.2-2.5,0.5-2.9,0.7s-0.7,0.6-0.8,1.2c-0.1,0.4,0,1.3,0.2,2.7l0.4,2.5c0.2,1.6,0.7,2.9,1.5,3.9c0.7,1,1.8,1.8,3.1,2.4
				c1.3,0.6,3.2,1.1,5.7,1.4V234.3z M57.9,214.6l9.6,1.9l1.1,0.2c0.8,0.2,1.4,0.1,1.9-0.3c0.5-0.3,0.8-0.9,1-1.7
				c0.2-1.2,0.2-2.3-0.1-3.4c-0.3-1.1-0.9-2-1.8-2.7s-1.9-1.2-3.2-1.5c-1.4-0.3-2.7-0.2-4,0.2c-1.2,0.4-2.2,1.2-2.9,2.2
				C58.8,210.7,58.3,212.4,57.9,214.6z"/>
			<path class="st0" d="M338.9,416.5c4-2.3,7.9-2.9,11.8-1.8c3.9,1.2,6.9,3.6,8.9,7.4c1.7,3.2,2.3,6.6,1.7,10.1
				c-0.8,4.6-3.4,8.2-8,10.6c-4.6,2.5-9,2.8-13.2,1c-3.3-1.4-5.9-3.8-7.7-7.2c-2-3.8-2.4-7.7-1.2-11.6
				C332.5,421.2,335,418.3,338.9,416.5 M339.8,417.6c-2.3,1.3-3.5,3.4-3.4,6.4c0.1,2.5,1.1,5.6,3,9.3c2.3,4.4,4.8,7.2,7.5,8.4
				c1.9,0.9,3.7,0.8,5.7-0.2c1.3-0.7,2.2-1.6,2.7-2.7c0.7-1.4,0.8-3.1,0.5-5.2s-1.3-4.6-2.8-7.4c-1.8-3.4-3.5-5.7-5-7.1
				c-1.5-1.3-3-2.1-4.3-2.3C342.3,416.6,341,416.9,339.8,417.6z M385.5,408.2l5.3,8.8l-20.6,15.5l-0.5-0.6l0.8-0.6
				c0.7-0.5,1.1-1,1.4-1.6c0.2-0.4,0.2-0.8,0.1-1.3c-0.1-0.4-0.6-1.1-1.4-2.3L359,410.9c-0.9-1.2-1.5-1.9-1.9-2.1
				c-0.3-0.2-0.8-0.3-1.3-0.2c-0.5,0.1-1.1,0.3-1.8,0.8l-0.8,0.6l-0.5-0.6l12.4-9.3l0.5,0.6l-1,0.8c-0.7,0.5-1.1,1-1.4,1.6
				c-0.2,0.4-0.2,0.8-0.1,1.4c0.1,0.4,0.6,1.1,1.4,2.3l11.1,14.8c0.9,1.2,1.5,1.9,1.9,2.1s0.8,0.3,1.4,0.1c0.4-0.1,1.1-0.6,2.2-1.4
				l1.9-1.5c1.2-0.9,2.1-1.9,2.6-3c0.5-1,0.7-2.3,0.6-3.7c-0.1-1.4-0.6-3.2-1.4-5.4L385.5,408.2z M406.6,387.4l6.5,8l-18.2,18.3
				l-0.6-0.6l0.7-0.7c0.6-0.6,1-1.2,1.1-1.8c0.1-0.4,0.1-0.8-0.1-1.3c-0.1-0.4-0.7-1-1.7-2.1l-13.5-13.5c-1.1-1-1.8-1.6-2.1-1.8
				c-0.4-0.2-0.8-0.2-1.4,0c-0.5,0.1-1.1,0.5-1.7,1.1l-0.7,0.7l-0.6-0.6l10.9-11l0.6,0.6l-0.9,0.9c-0.6,0.6-1,1.2-1.1,1.8
				c-0.1,0.4-0.1,0.9,0.1,1.3c0.1,0.4,0.7,1,1.7,2.1l13.1,13c1.1,1,1.8,1.7,2.2,1.8c0.4,0.2,0.9,0.1,1.4-0.1c0.3-0.2,1-0.7,2-1.7
				l1.7-1.7c1.1-1.1,1.8-2.2,2.1-3.3c0.3-1.1,0.4-2.3,0.1-3.7c-0.3-1.4-1-3.1-2.2-5.2L406.6,387.4z M401.3,366.2l9.5,7.1l0.3-0.5
				c1.1-1.5,1.4-2.9,1-4.2c-0.4-1.4-1.5-2.8-3.2-4.3l0.5-0.7l12.2,9.1l-0.5,0.7c-1.4-0.9-2.7-1.4-3.9-1.6c-1.2-0.2-2.1-0.1-2.9,0.3
				c-0.7,0.4-1.5,1.1-2.3,2.2l6.6,4.9c1.3,1,2.1,1.5,2.5,1.6s0.8,0.1,1.2-0.1c0.4-0.2,0.9-0.6,1.3-1.2l1-1.4
				c1.6-2.2,2.4-4.3,2.4-6.3c0-2.1-0.9-4.1-2.5-6.3l0.5-0.6l6.6,6.6l-15,20.1l-0.6-0.5l0.6-0.8c0.5-0.7,0.8-1.3,0.9-1.9
				c0.1-0.4,0-0.9-0.3-1.3c-0.2-0.3-0.9-0.9-2-1.8l-15.3-11.4c-1.1-0.8-1.7-1.2-2-1.4c-0.5-0.2-1-0.2-1.4-0.1
				c-0.6,0.2-1.3,0.7-1.8,1.4l-0.6,0.8l-0.6-0.5l14.5-19.5l6.9,5.1l-0.5,0.7c-1.9-0.9-3.5-1.4-4.7-1.3s-2.4,0.5-3.5,1.3
				c-0.7,0.5-1.7,1.6-3,3.4L401.3,366.2z M422.8,326.4l9,4.8l-0.4,0.7c-2.9-0.5-5.5-0.2-7.7,0.8s-3.8,2.5-4.9,4.5
				c-1,1.9-1.3,3.8-0.9,5.6c0.4,1.8,1.4,3.5,3.1,5.1c1.6,1.6,3.5,2.9,5.5,3.9c2.5,1.3,4.8,2.2,6.9,2.6c2.2,0.4,4,0.2,5.6-0.6
				c1.6-0.8,2.8-2.1,3.7-3.9c0.3-0.6,0.6-1.3,0.8-2c0.2-0.7,0.4-1.5,0.5-2.3l-5.3-2.8c-1-0.5-1.7-0.8-2.1-0.8s-0.8,0.1-1.3,0.4
				s-0.9,0.8-1.2,1.4l-0.4,0.7l-0.7-0.4l6.6-12.5l0.7,0.4c-0.4,1-0.7,1.7-0.7,2.2s0.2,0.9,0.5,1.4c0.2,0.2,0.7,0.6,1.7,1.1l5.3,2.8
				c-0.1,2-0.5,4-1.1,6s-1.4,3.9-2.4,5.8c-1.3,2.4-2.7,4.3-4.2,5.5c-1.5,1.3-3.1,2.2-4.9,2.9c-1.7,0.7-3.5,1-5.2,1
				c-2.2,0-4.4-0.6-6.5-1.8c-3.9-2-6.4-5.1-7.6-9.2s-0.8-8.2,1.4-12.3c0.7-1.3,1.4-2.4,2.1-3.3c0.4-0.5,1.2-1.2,2.3-2.2
				c1.1-1,1.8-1.6,1.9-1.8c0.2-0.4,0.2-0.7,0.1-1.2c-0.1-0.4-0.4-1-1-1.6L422.8,326.4z M429.5,314.7l11.2,3.8l0.2-0.5
				c0.6-1.7,0.5-3.2-0.3-4.3c-0.8-1.2-2.3-2.2-4.3-3.2l0.3-0.8l14.4,4.9l-0.3,0.8c-1.6-0.4-3-0.5-4.2-0.3s-2.1,0.6-2.6,1.1
				c-0.6,0.6-1.1,1.5-1.5,2.8l7.7,2.7c1.5,0.5,2.5,0.8,2.8,0.8c0.4,0,0.7-0.2,1.1-0.4c0.3-0.3,0.6-0.8,0.9-1.6l0.6-1.6
				c0.9-2.6,1-4.8,0.3-6.8s-2.1-3.7-4.3-5.2l0.3-0.8l8.3,4.2l-8.2,23.7l-0.7-0.3l0.3-0.9c0.3-0.8,0.4-1.5,0.2-2.1
				c-0.1-0.4-0.3-0.8-0.7-1.1c-0.3-0.3-1.1-0.6-2.5-1.1l-18.1-6.2c-1.2-0.4-2-0.7-2.3-0.7c-0.5,0-1,0.1-1.3,0.4
				c-0.6,0.4-1,1-1.3,1.9l-0.3,0.9l-0.7-0.3l7.9-23l8.1,2.8l-0.3,0.8c-2.1-0.3-3.7-0.2-4.8,0.2c-1.1,0.4-2.1,1.2-2.9,2.3
				c-0.5,0.7-1.1,2-1.8,4.1L429.5,314.7z M56.6,315.8l-8.4,3.1c-1.4,0.5-2.2,0.9-2.5,1.2c-0.3,0.3-0.5,0.7-0.6,1.2s0,1.2,0.3,2
				l0.3,0.9l-0.7,0.3l-5.2-14.2l0.7-0.3l0.3,0.9c0.3,0.8,0.7,1.4,1.1,1.8c0.3,0.3,0.7,0.4,1.3,0.4c0.4,0,1.2-0.2,2.6-0.7l17.9-6.6
				c1.4-0.5,2.2-0.9,2.5-1.2c0.3-0.3,0.5-0.7,0.6-1.2s0-1.2-0.3-2l-0.3-0.9l0.7-0.3l5.2,14.2l-0.7,0.3l-0.3-0.9
				c-0.3-0.8-0.7-1.4-1.1-1.8c-0.3-0.3-0.7-0.4-1.3-0.5c-0.4,0-1.2,0.2-2.6,0.7l-7.7,2.8l3.5,9.6l7.7-2.8c1.4-0.5,2.2-0.9,2.5-1.2
				c0.3-0.3,0.5-0.7,0.6-1.2c0.1-0.6,0-1.2-0.3-2l-0.3-0.9l0.7-0.3l5.2,14.2l-0.7,0.3L77,330c-0.3-0.8-0.7-1.4-1.1-1.7
				c-0.3-0.3-0.7-0.4-1.3-0.5c-0.4,0-1.2,0.2-2.6,0.7l-17.9,6.6c-1.4,0.5-2.2,0.9-2.5,1.2c-0.3,0.3-0.5,0.7-0.6,1.2
				c-0.1,0.6,0,1.2,0.3,2l0.3,0.9l-0.7,0.3l-5.2-14.2l0.7-0.3l0.3,0.9c0.3,0.8,0.7,1.4,1.1,1.8c0.3,0.3,0.7,0.4,1.3,0.5
				c0.4,0,1.2-0.2,2.6-0.7l8.4-3.1L56.6,315.8z M86.1,343.6c2.5,3.9,3.1,7.9,2.1,11.8s-3.4,7-7.2,9.1c-3.2,1.8-6.5,2.5-10,2
				c-4.6-0.6-8.3-3.2-10.8-7.7c-2.6-4.5-3.1-8.9-1.4-13.1c1.3-3.3,3.6-6,7-7.9c3.7-2.1,7.6-2.7,11.5-1.5
				C81.1,337.4,84.1,339.8,86.1,343.6z M85,344.5c-1.3-2.3-3.5-3.4-6.5-3.2c-2.5,0.1-5.5,1.2-9.2,3.3c-4.3,2.5-7,5-8.2,7.7
				c-0.8,1.9-0.7,3.8,0.4,5.7c0.7,1.3,1.6,2.2,2.8,2.7c1.4,0.6,3.2,0.8,5.3,0.4c2.1-0.4,4.5-1.4,7.3-3c3.3-1.9,5.6-3.6,6.9-5.2
				s2-3,2.1-4.4C86,347.1,85.7,345.8,85,344.5z M106.5,372.4l-7.5,6.1l-0.5-0.7c1.7-1.8,2.6-3.8,2.7-6c0.2-2.2-0.3-4-1.5-5.5
				c-0.9-1.1-1.9-1.8-3-2s-2.1,0-2.9,0.6c-0.5,0.4-0.9,0.9-1.1,1.4c-0.3,0.7-0.4,1.7-0.3,2.8c0,0.8,0.3,2.5,0.9,5.2
				c0.8,3.7,0.9,6.5,0.5,8.3c-0.5,1.8-1.4,3.3-2.9,4.5c-1.9,1.5-4.1,2-6.7,1.6c-2.5-0.4-4.7-1.8-6.5-4.1c-0.6-0.7-1-1.5-1.4-2.2
				c-0.4-0.8-0.7-1.8-1.1-3.1c-0.2-0.7-0.4-1.2-0.7-1.6c-0.2-0.3-0.6-0.5-1.1-0.7s-1-0.1-1.6,0l-0.5-0.6l8.6-6.7l0.5,0.6
				c-2,2.4-3.2,4.8-3.3,7.2c-0.2,2.4,0.4,4.4,1.6,6.1c1,1.3,2.1,2,3.4,2.2s2.4,0,3.3-0.7c0.5-0.4,1-1,1.2-1.7
				c0.3-0.7,0.4-1.5,0.4-2.4s-0.2-2.4-0.6-4.5c-0.6-2.9-0.9-5.1-0.9-6.5c0-1.5,0.3-2.8,0.8-4s1.3-2.2,2.4-3c1.8-1.4,3.9-2,6.2-1.6
				c2.3,0.3,4.3,1.5,5.9,3.6c0.6,0.7,1.1,1.5,1.4,2.4c0.3,0.6,0.5,1.5,0.8,2.5c0.2,1,0.5,1.7,0.7,2s0.5,0.5,0.8,0.5s0.9-0.2,1.7-0.5
				L106.5,372.4z M104,393.9l-5.7,5.7c-1.1,1.1-1.7,1.9-1.9,2.3c-0.2,0.4-0.1,0.9,0,1.4c0.2,0.5,0.7,1.2,1.7,2.2l-0.6,0.6
				l-10.4-10.4l0.6-0.6c0.9,0.9,1.7,1.5,2.2,1.7s1,0.2,1.4,0c0.4-0.1,1.2-0.8,2.3-1.9l13.3-13.3c1.1-1.1,1.7-1.9,1.9-2.3
				c0.1-0.4,0.1-0.9,0-1.4c-0.2-0.5-0.7-1.2-1.7-2.2l0.6-0.6l8.9,8.9c2.9,2.9,4.5,5.6,4.8,7.9c0.2,2.3-0.4,4.3-2,5.9
				c-1.3,1.3-2.9,2.1-4.7,2.2c-1.8,0.1-3.6-0.4-5.4-1.5C108.1,397.8,106.3,396.2,104,393.9z M114,383.9l-8.9,8.9
				c0.3,0.4,0.6,0.6,0.7,0.8c1.2,1.2,2.5,1.8,3.9,1.7c1.4-0.1,2.9-0.9,4.4-2.4s2.3-3,2.3-4.3c0-1.4-0.6-2.7-1.9-4L114,383.9z
				 M119.2,423.8l-0.5,0.6l-11.8-9.5l0.5-0.6l0.7,0.6c0.7,0.5,1.3,0.8,1.9,0.9c0.4,0.1,0.9,0,1.3-0.3c0.3-0.2,1-0.8,1.9-2l12-14.8
				c0.9-1.2,1.5-1.9,1.6-2.3s0.1-0.8-0.1-1.4c-0.2-0.5-0.6-1-1.2-1.5l-0.7-0.6l0.5-0.6l11.8,9.5l-0.5,0.6l-0.7-0.6
				c-0.7-0.5-1.3-0.8-1.9-0.9c-0.4-0.1-0.9,0-1.3,0.2c-0.3,0.2-1,0.8-1.9,1.9l-12,14.8c-0.9,1.2-1.5,1.9-1.6,2.3s-0.1,0.8,0.1,1.4
				c0.2,0.5,0.6,1,1.2,1.5L119.2,423.8z M159.2,416.5l-4.2,6.6l-0.6-0.4c0.6-1.8,0.9-3.1,0.8-4.1c0-1-0.3-1.9-0.9-2.8
				c-0.3-0.5-1-1.1-2.2-1.9l-1.8-1.2l-12.1,18.9c-0.8,1.2-1.2,2.1-1.3,2.5s0,0.8,0.3,1.3s0.7,1,1.4,1.4l0.8,0.5L139,438l-12.8-8.2
				l0.4-0.7l0.8,0.5c0.7,0.5,1.4,0.7,2,0.7c0.4,0,0.9-0.1,1.3-0.4c0.3-0.2,0.9-0.9,1.7-2.1l12.1-18.9l-1.8-1.1
				c-1.6-1-3.1-1.5-4.3-1.2c-1.7,0.3-3.2,1.3-4.6,2.9L133,409l4.2-6.6L159.2,416.5z M163.5,441.3l-9.3-4.3l-2.3,2
				c-0.8,0.7-1.3,1.3-1.5,1.9c-0.3,0.7-0.3,1.4,0.1,2c0.3,0.4,1,0.9,2.4,1.7l-0.3,0.7l-8.7-4.1l0.3-0.7c1,0.3,2,0.3,2.9-0.1
				s2.3-1.3,4.1-2.9l19.2-16.6l0.4,0.2l-0.6,26c-0.1,2.5,0.1,4.1,0.4,4.9c0.3,0.6,0.8,1.1,1.5,1.6l-0.3,0.7l-12.7-5.9l0.3-0.7
				l0.5,0.2c1,0.5,1.8,0.7,2.4,0.6c0.4-0.1,0.7-0.3,0.8-0.7c0.1-0.2,0.2-0.5,0.2-0.8c0-0.1,0.1-0.7,0.1-1.7L163.5,441.3z
				 M163.5,439.6l0.3-10.9l-8.3,7.2L163.5,439.6z M203.5,453.1l-3.9,9.5l-24.7-7.3l0.2-0.8l0.9,0.3c0.8,0.2,1.5,0.3,2.1,0.1
				c0.4-0.1,0.8-0.3,1.1-0.7c0.2-0.3,0.6-1.1,1-2.5l5.4-18.3c0.4-1.4,0.6-2.3,0.6-2.7c0-0.4-0.3-0.8-0.6-1.2c-0.4-0.4-1-0.7-1.7-1
				l-0.9-0.3l0.2-0.8l14.8,4.4l-0.2,0.8l-1.2-0.4c-0.8-0.2-1.5-0.3-2.1-0.1c-0.4,0.1-0.8,0.3-1.1,0.7c-0.2,0.3-0.6,1.1-1,2.5
				l-5.2,17.7c-0.4,1.4-0.6,2.4-0.6,2.8c0.1,0.4,0.3,0.8,0.7,1.2c0.3,0.2,1.1,0.5,2.4,0.9l2.3,0.7c1.5,0.4,2.8,0.5,3.9,0.3
				c1.1-0.2,2.2-0.8,3.3-1.7c1-0.9,2.2-2.4,3.5-4.4L203.5,453.1z M219.3,465.3l-0.1,0.8l-14.9-2.6l0.1-0.8l1,0.2
				c0.8,0.1,1.5,0.1,2.1-0.1c0.4-0.1,0.7-0.4,1-0.9c0.2-0.3,0.4-1.2,0.7-2.6l3.3-18.8c0.3-1.5,0.3-2.4,0.2-2.8s-0.3-0.8-0.8-1.1
				c-0.4-0.4-1-0.6-1.8-0.7l-0.9-0.2l0.1-0.8l14.9,2.6l-0.1,0.8l-0.9-0.2c-0.8-0.2-1.5-0.1-2.1,0.1c-0.4,0.1-0.7,0.4-1,0.9
				c-0.2,0.3-0.4,1.2-0.7,2.6l-3.3,18.8c-0.3,1.5-0.3,2.4-0.2,2.8s0.4,0.8,0.8,1.1c0.4,0.4,1,0.6,1.8,0.7L219.3,465.3z M250.8,439.5
				v0.1l13.4-1.1l0.1,0.8l-0.6,0.1c-0.8,0.1-1.4,0.2-1.7,0.5c-0.3,0.3-0.5,0.5-0.4,0.8c0,0.5,0.7,1.7,2,3.7l6,9.1l4.5-9.2
				c1.1-2.2,1.6-3.7,1.6-4.4c0-0.4-0.2-0.7-0.6-0.9c-0.5-0.3-1.4-0.5-2.7-0.4l-0.1-0.8l8.8-0.7l0.1,0.8c-0.9,0.2-1.7,0.5-2.1,1
				c-0.7,0.7-1.6,2.4-3,5.2l-5.4,11l0.6,7c0.1,1.5,0.3,2.4,0.5,2.8s0.5,0.6,1,0.9c0.5,0.2,1.1,0.3,1.9,0.3l1.6-0.1l0.1,0.8
				l-16.2,1.3l-0.1-0.8l1.5-0.1c0.9-0.1,1.5-0.3,2-0.6c0.4-0.2,0.6-0.6,0.8-1.1c0.1-0.4,0.1-1.3,0-2.7l-0.5-5.8l-7.8-11.8
				c-1.6-2.3-2.6-3.7-3.2-4.1c-0.5-0.3-1.1-0.5-1.9-0.5l-0.4,6.9h-0.8c-0.3-1.8-0.8-3.2-1.3-4s-1.2-1.5-2.2-2
				c-0.5-0.3-1.5-0.5-2.8-0.6l-2.2-0.1l-1.4,22.3c-0.1,1.5-0.1,2.4,0.1,2.8c0.1,0.4,0.4,0.7,0.9,1s1.1,0.5,1.9,0.5l1,0.1v0.8
				l-15.2-1l0.1-0.8l1,0.1c0.8,0.1,1.5-0.1,2.1-0.3c0.4-0.2,0.7-0.5,0.9-1c0.2-0.3,0.3-1.2,0.4-2.7l1.4-22.3l-2.1-0.1
				c-2-0.1-3.4,0.2-4.3,1c-1.3,1.1-2.2,2.7-2.7,4.8h-0.8l0.5-7.8L250.8,439.5z M323.9,423.9l3.3,9.5l-0.8,0.3
				c-1.4-2.3-3.2-3.8-5.3-4.6c-2.1-0.8-4.1-0.8-6.2-0.1c-1.7,0.6-3.1,1.6-4.2,3.1s-1.7,3.1-1.8,4.9c-0.1,2.3,0.2,4.7,1.1,7.2
				c0.8,2.5,1.9,4.6,3.2,6.4c1.3,1.8,2.8,3,4.5,3.6s3.6,0.5,5.7-0.2c1.7-0.6,3.2-1.5,4.4-2.8c1.2-1.2,2.2-3.1,3.2-5.5l0.8,2.4
				c-1,2.1-2.2,3.8-3.6,5.1c-1.4,1.3-3.2,2.3-5.5,3.1c-2.9,1-5.7,1.3-8.4,0.9c-2.7-0.4-5-1.5-7-3.3s-3.4-3.9-4.3-6.4
				c-0.9-2.6-1.1-5.3-0.5-8.2c0.6-2.8,1.8-5.3,3.7-7.4c1.9-2.1,4.1-3.6,6.8-4.5c1.9-0.7,4.1-0.9,6.5-0.8c1.4,0.1,2.3,0,2.6-0.1
				c0.4-0.1,0.8-0.4,1-0.9c0.2-0.4,0.2-1,0.1-1.7H323.9z M160.6,331.8h1.7"/>
			<path class="st0" d="M248,166.1c-11.9,0-23.6-0.2-34.9-0.6l10.3-15.9l-12.3-19l-12.3,19l10.2,15.8c-11-0.4-21.7-1-32.1-1.8
				c-0.3-11.1-6.2-19.8-13.3-19.8c-1.7,0-3.3,0.5-4.8,1.4c4.6,2.8,8,9.6,8.4,17.6l0,0v10.1h174.5v-11.3h-0.2
				c0.7-7.5,4-13.7,8.3-16.4c-1.5-0.9-3.1-1.4-4.8-1.4c-6.9,0-12.6,8.3-13.3,18.8c-13.1,1.2-27,2.1-41.3,2.7l10.1-15.7l-12.3-19
				l-12.3,19l10.2,15.8c-11.3,0.4-23,0.7-34.9,0.7l17.3-26.8L250,110.6l-18.6,28.7l17.3,26.8H248z"/>
			<path class="st0" d="M264.9,367.5c0,8.3-4.7,15-10.4,15c-5.7,0-10.4-6.7-10.4-15s10.4-15,10.4-15S264.9,359.2,264.9,367.5
				 M254.2,346.3c-21.4-13.9-89-12.3-92-12.2l0.1,4.6c0.7,0,67.3-1.6,88.4,10.9c-4.3,3.6-10.7,10.2-10.7,17.9
				c0,11.4,6.4,20.7,14.4,20.7c7.9,0,14.4-9.3,14.4-20.7c0-7.8-6.6-14.5-10.9-18.1c21.4-12.3,87.4-10.8,88.1-10.7l0.1-4.6
				C343.2,334,275.6,332.4,254.2,346.3z"/>
			<path class="st0" d="M261.7,336.5c32.4,0,63.2,1.2,91.2,3.3V332H156v9C187.7,338.2,223.6,336.5,261.7,336.5"/>
			<polygon class="st0" points="48.2,250.3 51.7,261.3 63.3,261.3 54,268.1 57.5,279.1 48.2,272.3 38.8,279.1 42.4,268.1 33,261.3 
				44.6,261.3 			"/>
			<polygon class="st0" points="449.6,250.3 453.2,261.3 464.8,261.3 455.4,268.1 459,279.1 449.6,272.3 440.3,279.1 443.9,268.1 
				434.5,261.3 446.1,261.3 			"/>
			<path class="st0" d="M133.1,179.9h27c8.5,0,15,0.9,19.4,2.8c4.4,1.8,7.9,5.6,10.7,11.2c2.7,5.6,4.1,14.7,4.1,27.2
				c0,8.5-1,14.4-2.9,17.7s-5.7,5.9-11.3,7.7c6.3,2,10.5,5.2,12.7,9.8s3.3,11.6,3.3,21v13.4c0,9.8-0.8,17-2.4,21.8
				c-1.6,4.7-4.2,7.9-7.7,9.7c-3.5,1.7-10.7,2.6-21.6,2.6H133L133.1,179.9L133.1,179.9z M160.2,204.7v32.2c1.2-0.1,2.1-0.1,2.7-0.1
				c2.7,0,4.4-0.9,5.1-2.7c0.7-1.8,1.1-7,1.1-15.6c0-4.5-0.3-7.7-0.9-9.5c-0.6-1.8-1.4-3-2.3-3.4C164.9,205,163,204.7,160.2,204.7z
				 M160.2,259.4V300c3.8-0.2,6.3-1,7.3-2.5s1.6-5.2,1.6-11V273c0-6.2-0.5-10-1.4-11.3C166.7,260.4,164.2,259.6,160.2,259.4z"/>
			<rect x="205.9" y="179.9" class="st0" width="27.1" height="144.9"/>
			<polygon class="st0" points="306.2,179.9 306.2,324.8 279.1,324.8 279.1,263.9 271,263.9 271,324.8 243.9,324.8 243.9,179.9 
				271,179.9 271,231.7 279.1,231.7 279.1,179.9 			"/>
			<path class="st0" d="M380.4,243h-27.1v-25.2c0-7.3-0.3-11.9-0.9-13.7s-1.9-2.7-3.8-2.7c-2.2,0-3.7,1.1-4.3,3.3
				c-0.6,2.2-0.9,7-0.9,14.3v67.3c0,7,0.3,11.6,0.9,13.8c0.6,2.1,2,3.2,4.1,3.2c2,0,3.3-1.1,4-3.2c0.6-2.2,0.9-7.2,0.9-15.2v-18.2
				h27.1v5.6c0,15-0.8,25.6-2.3,31.9s-4.9,11.8-10.1,16.5s-11.6,7.1-19.3,7.1c-7.9,0-14.5-2-19.6-6c-5.2-4-8.6-9.5-10.2-16.6
				c-1.7-7.1-2.5-17.7-2.5-31.9V231c0-10.4,0.3-18.3,0.8-23.5s2.1-10.2,4.6-15.1c2.6-4.8,6.1-8.6,10.6-11.4
				c4.5-2.8,9.7-4.2,15.6-4.2c8,0,14.6,2.1,19.8,6.4c5.2,4.3,8.6,9.6,10.2,16s2.4,16.4,2.4,29.9L380.4,243L380.4,243z"/>
		</g>
	</g>
</g>
</svg>
